# xmcd
#
# Track frame offsets:
# 150
# 2787
# 22660
# 40110
# 60095
# 77970
# 99037
# 116925
# 129682
# 153502
# 162842
# 188320
# 206997
# 237520
# 250865
#
# Disc length: 3480 seconds
#
#
# Revision: 0
# Processed by: cddbd v1.5.2PL0 Copyright (c) Steve Scherf et al.
# Submitted via: Nero 7, 11, 10, 0 
#
DISCID=b40d960f
DTITLE=The Buzz - Highway
DYEAR=1997
DGENRE=Blues
TTITLE0=Intro
TTITLE1=Chickenhead
TTITLE2=It'll Be All Right
TTITLE3=Never Gonna Change
TTITLE4=20-20
TTITLE5=Long Way
TTITLE6=Kong
TTITLE7=Story Of Bill
TTITLE8=Pablo Cassal
TTITLE9=Drunk In Iowa
TTITLE10=Keep On Lovin' Me
TTITLE11=Lovin' U Need
TTITLE12=Five Long Years
TTITLE13=Texas Love Song
TTITLE14=Drunk Acoustic
EXTD=
EXTT0=Intro
EXTT1=Chickenhead
EXTT2=It'll Be All Right
EXTT3=Never Gonna Change
EXTT4=20-20
EXTT5=Long Way
EXTT6=Kong
EXTT7=Story Of Bill
EXTT8=Pablo Cassal
EXTT9=Drunk In Iowa
EXTT10=Keep On Lovin' Me
EXTT11=Lovin' U Need
EXTT12=Five Long Years
EXTT13=Texas Love Song
EXTT14=Drunk Acoustic
PLAYORDER=
